<?xml version="1.0" encoding="UTF-8" standalone="no"?>
<!DOCTYPE svg PUBLIC "-//W3C//DTD SVG 1.1//EN"
 "http://www.w3.org/Graphics/SVG/1.1/DTD/svg11.dtd">
<!-- Generated by graphviz version 2.42.3 (20191010.1750)
 -->
<!-- Title: %3 Pages: 1 -->
<svg width="268pt" height="78pt"
 viewBox="0.00 0.00 268.43 78.00" xmlns="http://www.w3.org/2000/svg" xmlns:xlink="http://www.w3.org/1999/xlink">
<g id="graph0" class="graph" transform="scale(1 1) rotate(0) translate(4 74)">
<title>%3</title>
<polygon fill="white" stroke="transparent" points="-4,4 -4,-74 264.43,-74 264.43,4 -4,4"/>
<!-- a -->
<g id="node1" class="node">
<title>a</title>
<ellipse fill="none" stroke="black" cx="27" cy="-18" rx="27" ry="18"/>
<text text-anchor="middle" x="27" y="-13.8" font-family="Times,serif" font-size="14.00">a</text>
</g>
<!-- b -->
<g id="node2" class="node">
<title>b</title>
<ellipse fill="none" stroke="black" cx="130.21" cy="-52" rx="27" ry="18"/>
<text text-anchor="middle" x="130.21" y="-47.8" font-family="Times,serif" font-size="14.00">b</text>
</g>
<!-- a&#45;&#45;b -->
<g id="edge1" class="edge">
<title>a&#45;&#45;b</title>
<path fill="none" stroke="black" d="M51.47,-25.89C67.83,-31.38 89.54,-38.67 105.87,-44.16"/>
<text text-anchor="middle" x="78.61" y="-39.8" font-family="Times,serif" font-size="14.00">e1</text>
</g>
<!-- c -->
<g id="node3" class="node">
<title>c</title>
<ellipse fill="none" stroke="black" cx="233.43" cy="-18" rx="27" ry="18"/>
<text text-anchor="middle" x="233.43" y="-13.8" font-family="Times,serif" font-size="14.00">c</text>
</g>
<!-- b&#45;&#45;c -->
<g id="edge2" class="edge">
<title>b&#45;&#45;c</title>
<path fill="none" stroke="black" d="M154.69,-44.11C171.04,-38.62 192.76,-31.33 209.08,-25.84"/>
<text text-anchor="middle" x="181.82" y="-39.8" font-family="Times,serif" font-size="14.00">e2</text>
</g>
<!-- c&#45;&#45;a -->
<g id="edge3" class="edge">
<title>c&#45;&#45;a</title>
<path fill="none" stroke="black" d="M206.71,-15.01C192.2,-13.47 173.72,-11.77 157.21,-11 133.24,-9.89 127.19,-9.89 103.21,-11 86.71,-11.77 68.23,-13.47 53.72,-15.01"/>
<text text-anchor="middle" x="130.21" y="-13.8" font-family="Times,serif" font-size="14.00">e3</text>
</g>
</g>
</svg>
