<?xml version="1.0" encoding="UTF-8" standalone="no"?>
<!DOCTYPE svg PUBLIC "-//W3C//DTD SVG 1.1//EN"
 "http://www.w3.org/Graphics/SVG/1.1/DTD/svg11.dtd">
<!-- Generated by graphviz version 2.42.3 (20191010.1750)
 -->
<!-- Title: %3 Pages: 1 -->
<svg width="392pt" height="260pt"
 viewBox="0.00 0.00 391.74 260.00" xmlns="http://www.w3.org/2000/svg" xmlns:xlink="http://www.w3.org/1999/xlink">
<g id="graph0" class="graph" transform="scale(1 1) rotate(0) translate(4 256)">
<title>%3</title>
<polygon fill="white" stroke="transparent" points="-4,4 -4,-256 387.74,-256 387.74,4 -4,4"/>
<!-- ancestor1 male -->
<g id="node1" class="node">
<title>ancestor1 male</title>
<ellipse fill="none" stroke="black" cx="63.39" cy="-234" rx="63.28" ry="18"/>
<text text-anchor="middle" x="63.39" y="-229.8" font-family="Times,serif" font-size="14.00">ancestor1 male</text>
</g>
<!-- ancestor2 male -->
<g id="node2" class="node">
<title>ancestor2 male</title>
<ellipse fill="none" stroke="black" cx="63.39" cy="-162" rx="63.28" ry="18"/>
<text text-anchor="middle" x="63.39" y="-157.8" font-family="Times,serif" font-size="14.00">ancestor2 male</text>
</g>
<!-- ancestor1 male&#45;&gt;ancestor2 male -->
<g id="edge1" class="edge">
<title>ancestor1 male&#45;&gt;ancestor2 male</title>
<path fill="none" stroke="black" d="M63.39,-215.7C63.39,-207.98 63.39,-198.71 63.39,-190.11"/>
<polygon fill="black" stroke="black" points="66.89,-190.1 63.39,-180.1 59.89,-190.1 66.89,-190.1"/>
</g>
<!-- xhe male -->
<g id="node3" class="node">
<title>xhe male</title>
<ellipse fill="none" stroke="black" cx="63.39" cy="-90" rx="42.05" ry="18"/>
<text text-anchor="middle" x="63.39" y="-85.8" font-family="Times,serif" font-size="14.00">xhe male</text>
</g>
<!-- ancestor2 male&#45;&gt;xhe male -->
<g id="edge2" class="edge">
<title>ancestor2 male&#45;&gt;xhe male</title>
<path fill="none" stroke="black" d="M63.39,-143.7C63.39,-135.98 63.39,-126.71 63.39,-118.11"/>
<polygon fill="black" stroke="black" points="66.89,-118.1 63.39,-108.1 59.89,-118.1 66.89,-118.1"/>
</g>
<!-- qq female -->
<g id="node4" class="node">
<title>qq female</title>
<ellipse fill="none" stroke="black" cx="243.39" cy="-234" rx="45.44" ry="18"/>
<text text-anchor="middle" x="243.39" y="-229.8" font-family="Times,serif" font-size="14.00">qq female</text>
</g>
<!-- ll male -->
<g id="node5" class="node">
<title>ll male</title>
<ellipse fill="none" stroke="black" cx="251.39" cy="-162" rx="34.34" ry="18"/>
<text text-anchor="middle" x="251.39" y="-157.8" font-family="Times,serif" font-size="14.00">ll male</text>
</g>
<!-- qq female&#45;&gt;ll male -->
<g id="edge3" class="edge">
<title>qq female&#45;&gt;ll male</title>
<path fill="none" stroke="black" d="M245.37,-215.7C246.25,-207.98 247.31,-198.71 248.29,-190.11"/>
<polygon fill="black" stroke="black" points="251.77,-190.44 249.43,-180.1 244.82,-189.64 251.77,-190.44"/>
</g>
<!-- wb male -->
<g id="node7" class="node">
<title>wb male</title>
<ellipse fill="none" stroke="black" cx="136.39" cy="-18" rx="40.12" ry="18"/>
<text text-anchor="middle" x="136.39" y="-13.8" font-family="Times,serif" font-size="14.00">wb male</text>
</g>
<!-- ll male&#45;&gt;wb male -->
<g id="edge5" class="edge">
<title>ll male&#45;&gt;wb male</title>
<path fill="none" stroke="black" d="M221.53,-152.81C198.97,-145.02 169.12,-131.02 152.39,-108 139.44,-90.19 135.88,-65.18 135.3,-46.21"/>
<polygon fill="black" stroke="black" points="138.8,-46.09 135.26,-36.1 131.8,-46.12 138.8,-46.09"/>
</g>
<!-- yy female -->
<g id="node8" class="node">
<title>yy female</title>
<ellipse fill="none" stroke="black" cx="206.39" cy="-90" rx="45.44" ry="18"/>
<text text-anchor="middle" x="206.39" y="-85.8" font-family="Times,serif" font-size="14.00">yy female</text>
</g>
<!-- ll male&#45;&gt;yy female -->
<g id="edge9" class="edge">
<title>ll male&#45;&gt;yy female</title>
<path fill="none" stroke="black" d="M240.95,-144.76C235.52,-136.32 228.76,-125.8 222.66,-116.31"/>
<polygon fill="black" stroke="black" points="225.43,-114.15 217.08,-107.63 219.54,-117.94 225.43,-114.15"/>
</g>
<!-- gb male -->
<g id="node9" class="node">
<title>gb male</title>
<ellipse fill="none" stroke="black" cx="235.39" cy="-18" rx="38.19" ry="18"/>
<text text-anchor="middle" x="235.39" y="-13.8" font-family="Times,serif" font-size="14.00">gb male</text>
</g>
<!-- ll male&#45;&gt;gb male -->
<g id="edge7" class="edge">
<title>ll male&#45;&gt;gb male</title>
<path fill="none" stroke="black" d="M262.57,-144.78C273.5,-126.82 287.29,-97.11 278.39,-72 274.45,-60.88 267.07,-50.4 259.52,-41.74"/>
<polygon fill="black" stroke="black" points="262.01,-39.27 252.64,-34.33 256.88,-44.04 262.01,-39.27"/>
</g>
<!-- jj female -->
<g id="node10" class="node">
<title>jj female</title>
<ellipse fill="none" stroke="black" cx="334.39" cy="-18" rx="41.08" ry="18"/>
<text text-anchor="middle" x="334.39" y="-13.8" font-family="Times,serif" font-size="14.00">jj female</text>
</g>
<!-- ll male&#45;&gt;jj female -->
<g id="edge11" class="edge">
<title>ll male&#45;&gt;jj female</title>
<path fill="none" stroke="black" d="M265.7,-145.57C274.67,-135.41 286.06,-121.52 294.39,-108 306.68,-88.04 317.37,-63.66 324.6,-45.46"/>
<polygon fill="black" stroke="black" points="327.89,-46.65 328.25,-36.06 321.37,-44.11 327.89,-46.65"/>
</g>
<!-- qq male -->
<g id="node6" class="node">
<title>qq male</title>
<ellipse fill="none" stroke="black" cx="345.39" cy="-234" rx="38.19" ry="18"/>
<text text-anchor="middle" x="345.39" y="-229.8" font-family="Times,serif" font-size="14.00">qq male</text>
</g>
<!-- qq male&#45;&gt;ll male -->
<g id="edge4" class="edge">
<title>qq male&#45;&gt;ll male</title>
<path fill="none" stroke="black" d="M325.45,-218.15C311.85,-208.02 293.65,-194.47 278.7,-183.34"/>
<polygon fill="black" stroke="black" points="280.44,-180.27 270.33,-177.11 276.26,-185.89 280.44,-180.27"/>
</g>
<!-- yy female&#45;&gt;wb male -->
<g id="edge6" class="edge">
<title>yy female&#45;&gt;wb male</title>
<path fill="none" stroke="black" d="M190.5,-73.12C181.29,-63.9 169.51,-52.13 159.31,-41.92"/>
<polygon fill="black" stroke="black" points="161.76,-39.42 152.21,-34.82 156.81,-44.37 161.76,-39.42"/>
</g>
<!-- yy female&#45;&gt;yy female -->
<g id="edge10" class="edge">
<title>yy female&#45;&gt;yy female</title>
<path fill="none" stroke="black" d="M237.94,-102.99C254.55,-105.09 269.61,-100.76 269.61,-90 269.61,-81.51 260.23,-77.03 248.12,-76.54"/>
<polygon fill="black" stroke="black" points="247.77,-73.06 237.94,-77.01 248.09,-80.05 247.77,-73.06"/>
</g>
<!-- yy female&#45;&gt;gb male -->
<g id="edge8" class="edge">
<title>yy female&#45;&gt;gb male</title>
<path fill="none" stroke="black" d="M213.41,-72.05C216.76,-63.97 220.84,-54.12 224.57,-45.11"/>
<polygon fill="black" stroke="black" points="227.84,-46.37 228.43,-35.79 221.37,-43.69 227.84,-46.37"/>
</g>
<!-- yy female&#45;&gt;jj female -->
<g id="edge12" class="edge">
<title>yy female&#45;&gt;jj female</title>
<path fill="none" stroke="black" d="M231.98,-75C251.77,-64.18 279.34,-49.11 300.88,-37.32"/>
<polygon fill="black" stroke="black" points="302.61,-40.37 309.71,-32.5 299.25,-34.22 302.61,-40.37"/>
</g>
</g>
</svg>
