<?xml version="1.0" encoding="UTF-8" standalone="no"?>
<!DOCTYPE svg PUBLIC "-//W3C//DTD SVG 1.1//EN"
 "http://www.w3.org/Graphics/SVG/1.1/DTD/svg11.dtd">
<!-- Generated by graphviz version 2.42.3 (20191010.1750)
 -->
<!-- Title: %3 Pages: 1 -->
<svg width="417pt" height="332pt"
 viewBox="0.00 0.00 417.49 332.00" xmlns="http://www.w3.org/2000/svg" xmlns:xlink="http://www.w3.org/1999/xlink">
<g id="graph0" class="graph" transform="scale(1 1) rotate(0) translate(4 328)">
<title>%3</title>
<polygon fill="white" stroke="transparent" points="-4,4 -4,-328 413.49,-328 413.49,4 -4,4"/>
<!-- ancestor1 male -->
<g id="node1" class="node">
<title>ancestor1 male</title>
<ellipse fill="none" stroke="black" cx="103.14" cy="-306" rx="63.28" ry="18"/>
<text text-anchor="middle" x="103.14" y="-301.8" font-family="Times,serif" font-size="14.00">ancestor1 male</text>
</g>
<!-- ancestor2 male -->
<g id="node2" class="node">
<title>ancestor2 male</title>
<ellipse fill="none" stroke="black" cx="103.14" cy="-234" rx="63.28" ry="18"/>
<text text-anchor="middle" x="103.14" y="-229.8" font-family="Times,serif" font-size="14.00">ancestor2 male</text>
</g>
<!-- ancestor1 male&#45;&gt;ancestor2 male -->
<g id="edge1" class="edge">
<title>ancestor1 male&#45;&gt;ancestor2 male</title>
<path fill="none" stroke="black" d="M103.14,-287.7C103.14,-279.98 103.14,-270.71 103.14,-262.11"/>
<polygon fill="black" stroke="black" points="106.64,-262.1 103.14,-252.1 99.64,-262.1 106.64,-262.1"/>
</g>
<!-- xhe male -->
<g id="node3" class="node">
<title>xhe male</title>
<ellipse fill="none" stroke="black" cx="103.14" cy="-162" rx="42.05" ry="18"/>
<text text-anchor="middle" x="103.14" y="-157.8" font-family="Times,serif" font-size="14.00">xhe male</text>
</g>
<!-- ancestor2 male&#45;&gt;xhe male -->
<g id="edge2" class="edge">
<title>ancestor2 male&#45;&gt;xhe male</title>
<path fill="none" stroke="black" d="M103.14,-215.7C103.14,-207.98 103.14,-198.71 103.14,-190.11"/>
<polygon fill="black" stroke="black" points="106.64,-190.1 103.14,-180.1 99.64,-190.1 106.64,-190.1"/>
</g>
<!-- lming male -->
<g id="node5" class="node">
<title>lming male</title>
<ellipse fill="none" stroke="black" cx="160.14" cy="-90" rx="50.28" ry="18"/>
<text text-anchor="middle" x="160.14" y="-85.8" font-family="Times,serif" font-size="14.00">lming male</text>
</g>
<!-- xhe male&#45;&gt;lming male -->
<g id="edge4" class="edge">
<title>xhe male&#45;&gt;lming male</title>
<path fill="none" stroke="black" d="M116.36,-144.76C123.45,-136.06 132.34,-125.15 140.25,-115.43"/>
<polygon fill="black" stroke="black" points="143,-117.6 146.6,-107.63 137.57,-113.18 143,-117.6"/>
</g>
<!-- qmei female -->
<g id="node4" class="node">
<title>qmei female</title>
<ellipse fill="none" stroke="black" cx="217.14" cy="-162" rx="54.11" ry="18"/>
<text text-anchor="middle" x="217.14" y="-157.8" font-family="Times,serif" font-size="14.00">qmei female</text>
</g>
<!-- qmei female&#45;&gt;lming male -->
<g id="edge3" class="edge">
<title>qmei female&#45;&gt;lming male</title>
<path fill="none" stroke="black" d="M203.63,-144.41C196.61,-135.78 187.88,-125.06 180.09,-115.5"/>
<polygon fill="black" stroke="black" points="182.58,-113.01 173.55,-107.47 177.15,-117.43 182.58,-113.01"/>
</g>
<!-- wb male -->
<g id="node6" class="node">
<title>wb male</title>
<ellipse fill="none" stroke="black" cx="274.14" cy="-18" rx="40.12" ry="18"/>
<text text-anchor="middle" x="274.14" y="-13.8" font-family="Times,serif" font-size="14.00">wb male</text>
</g>
<!-- lming male&#45;&gt;wb male -->
<g id="edge5" class="edge">
<title>lming male&#45;&gt;wb male</title>
<path fill="none" stroke="black" d="M184.32,-74.15C201.28,-63.74 224.13,-49.71 242.53,-38.41"/>
<polygon fill="black" stroke="black" points="244.48,-41.32 251.17,-33.11 240.81,-35.36 244.48,-41.32"/>
</g>
<!-- gb male -->
<g id="node8" class="node">
<title>gb male</title>
<ellipse fill="none" stroke="black" cx="371.14" cy="-18" rx="38.19" ry="18"/>
<text text-anchor="middle" x="371.14" y="-13.8" font-family="Times,serif" font-size="14.00">gb male</text>
</g>
<!-- lming male&#45;&gt;gb male -->
<g id="edge7" class="edge">
<title>lming male&#45;&gt;gb male</title>
<path fill="none" stroke="black" d="M196.49,-77.48C229.58,-66.92 279.75,-50.74 323.14,-36 326.02,-35.02 328.99,-34 331.98,-32.96"/>
<polygon fill="black" stroke="black" points="333.2,-36.25 341.48,-29.64 330.89,-29.64 333.2,-36.25"/>
</g>
<!-- yan female -->
<g id="node9" class="node">
<title>yan female</title>
<ellipse fill="none" stroke="black" cx="49.14" cy="-18" rx="49.29" ry="18"/>
<text text-anchor="middle" x="49.14" y="-13.8" font-family="Times,serif" font-size="14.00">yan female</text>
</g>
<!-- lming male&#45;&gt;yan female -->
<g id="edge9" class="edge">
<title>lming male&#45;&gt;yan female</title>
<path fill="none" stroke="black" d="M136.33,-73.98C120.38,-63.93 99.18,-50.56 81.68,-39.52"/>
<polygon fill="black" stroke="black" points="83.24,-36.37 72.92,-33.99 79.51,-42.29 83.24,-36.37"/>
</g>
<!-- jiao female -->
<g id="node10" class="node">
<title>jiao female</title>
<ellipse fill="none" stroke="black" cx="166.14" cy="-18" rx="49.77" ry="18"/>
<text text-anchor="middle" x="166.14" y="-13.8" font-family="Times,serif" font-size="14.00">jiao female</text>
</g>
<!-- lming male&#45;&gt;jiao female -->
<g id="edge11" class="edge">
<title>lming male&#45;&gt;jiao female</title>
<path fill="none" stroke="black" d="M161.63,-71.7C162.29,-63.98 163.08,-54.71 163.82,-46.11"/>
<polygon fill="black" stroke="black" points="167.31,-46.37 164.68,-36.1 160.34,-45.77 167.31,-46.37"/>
</g>
<!-- ybai female -->
<g id="node7" class="node">
<title>ybai female</title>
<ellipse fill="none" stroke="black" cx="280.14" cy="-90" rx="51.7" ry="18"/>
<text text-anchor="middle" x="280.14" y="-85.8" font-family="Times,serif" font-size="14.00">ybai female</text>
</g>
<!-- ybai female&#45;&gt;wb male -->
<g id="edge6" class="edge">
<title>ybai female&#45;&gt;wb male</title>
<path fill="none" stroke="black" d="M278.66,-71.7C278,-63.98 277.2,-54.71 276.47,-46.11"/>
<polygon fill="black" stroke="black" points="279.95,-45.77 275.61,-36.1 272.98,-46.37 279.95,-45.77"/>
</g>
<!-- ybai female&#45;&gt;gb male -->
<g id="edge8" class="edge">
<title>ybai female&#45;&gt;gb male</title>
<path fill="none" stroke="black" d="M300.79,-73.12C313.47,-63.36 329.87,-50.75 343.64,-40.16"/>
<polygon fill="black" stroke="black" points="346.03,-42.74 351.82,-33.86 341.76,-37.19 346.03,-42.74"/>
</g>
<!-- ybai female&#45;&gt;yan female -->
<g id="edge10" class="edge">
<title>ybai female&#45;&gt;yan female</title>
<path fill="none" stroke="black" d="M242.51,-77.6C202.43,-65.45 138.91,-46.2 95.7,-33.11"/>
<polygon fill="black" stroke="black" points="96.58,-29.72 85.99,-30.17 94.55,-36.42 96.58,-29.72"/>
</g>
<!-- ybai female&#45;&gt;jiao female -->
<g id="edge12" class="edge">
<title>ybai female&#45;&gt;jiao female</title>
<path fill="none" stroke="black" d="M255.69,-73.98C239.04,-63.76 216.84,-50.13 198.7,-38.99"/>
<polygon fill="black" stroke="black" points="200.52,-36 190.17,-33.75 196.86,-41.97 200.52,-36"/>
</g>
</g>
</svg>
