<?xml version="1.0" encoding="UTF-8" standalone="no"?>
<!DOCTYPE svg PUBLIC "-//W3C//DTD SVG 1.1//EN"
 "http://www.w3.org/Graphics/SVG/1.1/DTD/svg11.dtd">
<!-- Generated by graphviz version 2.42.3 (20191010.1750)
 -->
<!-- Title: %3 Pages: 1 -->
<svg width="196pt" height="152pt"
 viewBox="0.00 0.00 196.21 152.00" xmlns="http://www.w3.org/2000/svg" xmlns:xlink="http://www.w3.org/1999/xlink">
<g id="graph0" class="graph" transform="scale(1 1) rotate(0) translate(4 148)">
<title>%3</title>
<polygon fill="white" stroke="transparent" points="-4,4 -4,-148 192.21,-148 192.21,4 -4,4"/>
<!-- &#45;0.5 -->
<g id="node1" class="node">
<title>&#45;0.5</title>
<ellipse fill="none" stroke="black" cx="104.11" cy="-72" rx="24.21" ry="24.21"/>
<text text-anchor="middle" x="104.11" y="-67.8" font-family="Times,serif" font-size="14.00">&#45;0.5</text>
</g>
<!-- y -->
<g id="node5" class="node">
<title>y</title>
<text text-anchor="middle" x="176.71" y="-67.8" font-family="Times,serif" font-size="14.00">y</text>
</g>
<!-- &#45;0.5&#45;&gt;y -->
<g id="edge4" class="edge">
<title>&#45;0.5&#45;&gt;y</title>
<path fill="none" stroke="black" d="M128.23,-72C136.84,-72 146.55,-72 154.94,-72"/>
<polygon fill="black" stroke="black" points="155,-75.5 165,-72 155,-68.5 155,-75.5"/>
</g>
<!-- x1 -->
<g id="node2" class="node">
<title>x1</title>
<text text-anchor="middle" x="15" y="-121.8" font-family="Times,serif" font-size="14.00">x1</text>
</g>
<!-- x1&#45;&gt;&#45;0.5 -->
<g id="edge1" class="edge">
<title>x1&#45;&gt;&#45;0.5</title>
<path fill="none" stroke="black" d="M30.38,-117.08C42.31,-109.69 59.63,-98.95 74.38,-89.81"/>
<polygon fill="black" stroke="black" points="76.5,-92.61 83.16,-84.37 72.82,-86.66 76.5,-92.61"/>
<text text-anchor="middle" x="55" y="-107.8" font-family="Times,serif" font-size="14.00">&#45;1</text>
</g>
<!-- x2 -->
<g id="node3" class="node">
<title>x2</title>
<text text-anchor="middle" x="15" y="-67.8" font-family="Times,serif" font-size="14.00">x2</text>
</g>
<!-- x2&#45;&gt;&#45;0.5 -->
<g id="edge2" class="edge">
<title>x2&#45;&gt;&#45;0.5</title>
<path fill="none" stroke="black" d="M30.38,-72C41.09,-72 56.14,-72 69.78,-72"/>
<polygon fill="black" stroke="black" points="69.84,-75.5 79.84,-72 69.84,-68.5 69.84,-75.5"/>
<text text-anchor="middle" x="55" y="-74.8" font-family="Times,serif" font-size="14.00">&#45;1</text>
</g>
<!-- x3 -->
<g id="node4" class="node">
<title>x3</title>
<text text-anchor="middle" x="15" y="-13.8" font-family="Times,serif" font-size="14.00">x3</text>
</g>
<!-- x3&#45;&gt;&#45;0.5 -->
<g id="edge3" class="edge">
<title>x3&#45;&gt;&#45;0.5</title>
<path fill="none" stroke="black" d="M30.38,-26.92C42.31,-34.31 59.63,-45.05 74.38,-54.19"/>
<polygon fill="black" stroke="black" points="72.82,-57.34 83.16,-59.63 76.5,-51.39 72.82,-57.34"/>
<text text-anchor="middle" x="55" y="-47.8" font-family="Times,serif" font-size="14.00">10</text>
</g>
</g>
</svg>
